<svg width="766" height="345" viewBox="0 0 766 345" fill="none" xmlns="http://www.w3.org/2000/svg">
<g clip-path="url(#clip0_2168_251)">
<path d="M284.2 294.84H271.88L271.91 330.5H262.68L262.65 294.86H250.36V287.34L284.2 287.32V294.85V294.84Z" fill="#2563EB"/>
<path d="M333.91 307.8C332.81 307.17 331.48 306.85 329.92 306.86C327.88 306.86 326.26 307.64 325.06 309.2C323.86 310.76 323.26 312.91 323.27 315.64V330.47H314.28L314.26 299.64H323.26V305.43H323.37C324.85 301.21 327.56 299.1 331.48 299.1C332.54 299.1 333.35 299.22 333.91 299.46V307.79V307.8Z" fill="#2563EB"/>
<path d="M368.94 301.47C370.33 300.69 372.2 300.06 374.53 299.57C376.86 299.08 378.85 298.84 380.51 298.84C389.13 298.84 393.45 303.15 393.45 311.79V330.41H384.91V325.92H384.79C382.69 329.42 379.62 331.16 375.57 331.17C372.65 331.17 370.32 330.34 368.56 328.68C366.8 327.02 365.92 324.76 365.92 321.9C365.92 315.99 369.43 312.55 376.48 311.58L384.95 310.43C384.95 306.84 383.08 305.05 379.34 305.05C375.66 305.05 372.2 306.17 368.95 308.4V301.46L368.94 301.47ZM379.13 316.46C375.88 316.89 374.25 318.36 374.25 320.87C374.25 322.02 374.65 322.95 375.44 323.66C376.23 324.37 377.29 324.72 378.63 324.72C380.47 324.72 381.98 324.07 383.17 322.77C384.36 321.47 384.95 319.85 384.95 317.92V315.72L379.12 316.48L379.13 316.46Z" fill="#2563EB"/>
<path d="M460.22 330.37H451.27L451.26 313.18C451.26 308.2 449.46 305.71 445.88 305.71C444.17 305.71 442.75 306.38 441.62 307.71C440.49 309.04 439.92 310.74 439.92 312.8V330.39H430.93L430.91 299.56H439.91V304.46H440.02C442.27 300.69 445.57 298.8 449.94 298.79C456.78 298.79 460.2 303.02 460.21 311.49V330.36L460.22 330.37Z" fill="#2563EB"/>
<path d="M496.84 322.06C499.92 323.93 502.95 324.87 505.9 324.87C509.62 324.87 511.48 323.87 511.47 321.88C511.47 320.47 509.93 319.29 506.87 318.34C503.04 317.15 500.41 315.83 498.98 314.37C497.55 312.91 496.83 310.94 496.83 308.45C496.83 305.42 498.05 303.05 500.5 301.33C502.95 299.61 506.17 298.75 510.14 298.74C512.97 298.74 515.69 299.15 518.31 299.99V307.07C515.92 305.66 513.28 304.95 510.4 304.96C508.97 304.96 507.82 305.22 506.94 305.73C506.07 306.24 505.63 306.91 505.63 307.75C505.63 309.16 506.93 310.3 509.54 311.18C512.33 312.11 514.42 312.95 515.83 313.71C517.23 314.47 518.3 315.47 519.04 316.72C519.77 317.97 520.14 319.41 520.14 321.04C520.14 324.22 518.87 326.69 516.33 328.44C513.78 330.2 510.38 331.08 506.13 331.08C502.79 331.08 499.69 330.55 496.85 329.5V322.06H496.84Z" fill="#2563EB"/>
<path d="M564.58 326.59V344.48H555.59L555.56 299.46H564.56V304.17H564.67C567.03 300.52 570.36 298.7 574.67 298.7C578.59 298.7 581.66 300.06 583.87 302.8C586.08 305.54 587.19 309.27 587.19 313.99C587.19 319.14 585.92 323.26 583.35 326.37C580.79 329.48 577.42 331.03 573.26 331.03C569.49 331.03 566.62 329.55 564.67 326.58H564.56L564.58 326.59ZM564.44 316.66C564.44 318.85 565.04 320.64 566.23 322.04C567.42 323.43 568.96 324.13 570.86 324.13C573.11 324.13 574.86 323.25 576.11 321.5C577.36 319.75 577.99 317.28 577.99 314.08C577.99 308.43 575.78 305.61 571.38 305.61C569.34 305.61 567.67 306.39 566.38 307.96C565.09 309.52 564.45 311.53 564.45 313.98V316.66H564.44Z" fill="#2563EB"/>
<path d="M621.49 314.98C621.49 309.91 623 305.92 626.04 303.02C629.08 300.12 633.16 298.67 638.29 298.66C643.25 298.66 647.19 300.08 650.11 302.93C653.03 305.78 654.49 309.61 654.49 314.42C654.49 319.48 653 323.5 650.01 326.49C647.02 329.48 642.97 330.98 637.86 330.99C632.84 330.99 628.86 329.56 625.91 326.69C622.96 323.82 621.49 319.92 621.48 314.97L621.49 314.98ZM630.61 314.86C630.61 321.01 633.12 324.08 638.14 324.08C642.95 324.08 645.36 320.91 645.35 314.6C645.35 308.58 642.92 305.57 638.07 305.57C635.71 305.57 633.88 306.38 632.57 308C631.26 309.62 630.61 311.9 630.61 314.86Z" fill="#2563EB"/>
<path d="M710.24 307.53C709.14 306.9 707.81 306.58 706.25 306.59C704.21 306.59 702.59 307.37 701.39 308.93C700.19 310.49 699.6 312.64 699.6 315.37V330.2H690.61L690.59 299.37H699.59V305.16H699.7C701.18 300.94 703.89 298.83 707.81 298.83C708.87 298.83 709.68 298.95 710.24 299.19V307.52V307.53Z" fill="#2563EB"/>
<path d="M764.44 329.79C763.08 330.53 761.03 330.91 758.28 330.91C751.74 330.91 748.47 327.48 748.46 320.6V306.05H743.37V299.33H748.44V292.56L757.38 289.99V299.33H764.41V306.05H757.39V319.04C757.4 322.33 758.7 323.97 761.31 323.97C762.31 323.97 763.35 323.67 764.43 323.08V329.8L764.44 329.79Z" fill="#2563EB"/>
<path d="M320.94 161.5L321 248.68C321 250.42 321.4 251.74 322.2 252.64C323 253.54 324.42 254.27 326.47 254.83V257.53L290.11 257.56V254.86C292.16 254.3 293.58 253.57 294.37 252.67C295.17 251.77 295.56 250.45 295.56 248.71L295.5 161.53L259.31 161.56C257.6 161.56 256.29 161.95 255.38 162.72C254.47 163.49 253.73 164.9 253.16 166.96H250.43L250.41 137.23H253.14C253.77 139.27 254.52 140.68 255.4 141.46C256.28 142.23 257.58 142.62 259.28 142.62L357.02 142.55C358.78 142.55 360.12 142.16 361.03 141.39C361.94 140.62 362.68 139.21 363.25 137.16H365.98L366 166.89H363.27C362.7 164.84 361.96 163.43 361.05 162.66C360.14 161.89 358.8 161.51 357.04 161.51L320.93 161.54L320.94 161.5Z" fill="#2563EB"/>
<path d="M454.86 233.85L410.89 233.88L405.94 244.16C404.75 246.63 404.15 248.57 404.15 249.97C404.15 252.67 405.97 254.38 409.62 255.1V257.46L374.5 257.49V255.13C376.66 254.79 378.27 254.14 379.32 253.19C380.37 252.24 381.61 250.35 383.03 247.54L417.89 177.77C419.2 175.13 419.85 172.83 419.85 170.86C419.85 168.56 418.25 166.76 415.06 165.47V163.11L452.19 163.08V165.44C449.06 166.68 447.5 168.59 447.5 171.17C447.5 173.02 448.21 175.3 449.64 177.99L485.88 245.6C487.87 249.27 489.44 251.65 490.58 252.74C491.72 253.83 493.46 254.59 495.79 255.03V257.39L456.74 257.42V255.06C460.43 254.44 462.28 252.73 462.28 249.94C462.28 248.21 461.56 246.05 460.14 243.48L454.85 233.84L454.86 233.85ZM447.96 220.63L432.28 190.3L417.4 220.65L447.96 220.63Z" fill="#2563EB"/>
<path d="M522.14 254.86L530.57 229.16L532.79 229.92C532.79 231.94 533.42 233.54 534.67 234.72C536.49 236.46 539.69 238.03 544.28 239.43C548.86 240.83 553.17 241.53 557.21 241.53C563.3 241.53 567.81 240.17 570.74 237.48C573.67 234.79 575.13 230.63 575.13 225.01L575.09 171.61C575.09 169.87 574.69 168.55 573.89 167.65C573.09 166.75 571.67 166 569.62 165.38V163.02L603.42 163V165.36C601.37 165.92 599.95 166.67 599.16 167.6C598.36 168.53 597.97 169.86 597.97 171.6L598.01 225.43C598.01 235.76 596.26 243.18 592.73 247.67C589.83 251.38 585.53 254.26 579.85 256.31C574.16 258.36 567.7 259.39 560.48 259.4C552.51 259.4 542.67 257.56 530.94 253.86C529.86 253.52 528.98 253.36 528.29 253.36C526.98 253.36 525.7 254.09 524.45 255.55L522.14 254.88V254.86Z" fill="#2563EB"/>
<path d="M700.22 257.26L665.31 195.22L665.35 248.61C665.35 250.35 665.75 251.68 666.55 252.61C667.35 253.54 668.77 254.31 670.82 254.92V257.28L639.07 257.3V254.94C641.06 254.43 642.47 253.7 643.29 252.75C644.11 251.8 644.53 250.45 644.53 248.71L644.47 171.55C644.47 169.81 644.07 168.48 643.27 167.55C642.47 166.62 641.05 165.88 639 165.32V162.96L679.39 162.93V165.29C676.72 166.13 675.38 167.74 675.38 170.09C675.38 172.39 676.35 175.2 678.29 178.51L702.16 221.17L726.14 179.07C728.87 174.63 730.23 171.49 730.23 169.63C730.23 167.33 728.83 165.87 726.04 165.25V162.89L765.4 162.86V165.22C763.35 165.78 761.93 166.53 761.14 167.45C760.34 168.38 759.95 169.71 759.95 171.45L760 248.54C760 250.28 760.4 251.63 761.2 252.58C762 253.53 763.42 254.29 765.47 254.85V257.21L731.67 257.23V254.87C733.66 254.36 735.07 253.63 735.89 252.67C736.71 251.71 737.13 250.36 737.13 248.62L737.09 195.16L700.22 257.25V257.26Z" fill="#2563EB"/>
<path d="M74.58 211.04L76.32 212.79L79.97 214.94L86.29 218.46L89.18 220.22L92.36 221.93L94.24 223.05C94.38 223.1 94.88 223.28 95.21 223.8C95.61 224.44 95.44 225.11 95.41 225.22L94.98 226.99L92.78 232.73C92.21 234.22 91.69 235.71 91.22 237.2C90 241.09 89.4 244.13 88.8 247.26C88.38 249.44 87.88 252.28 87.44 255.65C87 261.42 86.56 267.2 86.12 272.97C85.61 283.12 85.11 293.27 84.6 303.42C84.31 307.87 84.02 312.32 83.73 316.78L83.5 319.56L83.33 320.56C96.12 320.48 108.91 320.41 121.71 320.33L122.08 318.9L123.62 311.89L124.55 307.51L125.39 304.02L127.25 295.68C127.34 295.26 127.61 295.13 127.89 295.08C128.15 295.03 128.37 295.25 128.44 295.6L129.68 301.78L131.04 307.86L132.42 315.01C132.83 316.97 133.23 318.93 133.64 320.89C142.99 320.93 152.35 320.97 161.7 321.01V318.08C162.75 317.05 163.79 316.02 164.84 314.99C165.54 314.17 166.25 313.35 166.95 312.53C168.2 308.1 169.45 303.68 170.7 299.25C170.67 298.45 170.21 297.68 170.39 296.81C170.6 295.82 170.17 294.84 170.08 293.93L169.71 289.8L169.21 281.32L168.62 271.98L167.81 263.8L167.2 255.9L166.82 250.45L166.38 241.68L176.39 239.17L189.39 236.07L195.06 234.61L198.83 233.61L204.83 232.29C206.71 231.88 208.84 231.55 209.74 229.59L211.09 224.51C211.88 221.53 214.74 223.69 215.91 216.79L217.1 209.85V208.39L216.75 203.57C216.55 200.78 214.73 201.24 214.59 197.68L214.03 183.5C202.8 178.94 191.57 174.38 180.33 169.82C179.97 167.45 179.6 165.07 179.24 162.7L178.89 159.74L177.65 153.23L175.53 146.72C175.59 146.69 175.62 146.65 175.63 146.63C174.86 146.24 174.75 145.36 174.27 144.63C171.57 140.47 168.1 136.86 164.11 133.91C162.65 132.83 161.18 132.93 161.04 131.72C161.01 131.48 164.54 127.69 165.19 124.58L166.02 120.63L167.55 106.78C167.71 105.34 167.68 104.11 167.96 102.61C168.12 101.75 167.78 100.43 168.96 99.9501L172.54 99.3101C174.42 98.9701 178.14 94.9901 176.55 93.1701L174.6 90.9401C171.71 88.5701 168.61 84.4801 167.22 81.0201L165.25 77.5301C163.71 74.8101 161.58 72.5601 159.05 70.6801C158.54 70.2901 157.43 69.5201 157.01 69.8401C156.73 70.0501 156.89 70.6301 157.1 71.9801C157.27 73.0801 157.37 74.0001 157.42 74.6401C157.17 74.5501 156.79 74.3801 156.45 74.0401C156.21 73.8001 156.08 73.5701 156 73.4301C155.69 72.8701 155.29 72.1901 154.81 71.3601C154.12 70.3701 153.43 69.3801 152.74 68.3801C151.99 67.4501 151.25 66.8001 150.68 66.3601C147.6 63.9801 144.19 63.7301 142.78 63.6501C141.62 63.5801 140.65 63.6501 139.97 63.7301C139.08 63.9301 138.18 64.1401 137.29 64.3401C136.63 64.5301 135.62 64.8501 134.44 65.4101C133.1 66.0401 131.62 66.7301 131.68 67.4901C131.7 67.6801 131.82 68.0201 132.58 68.3901C133.56 68.5701 134.61 68.8001 135.72 69.1001C136.91 69.4301 138.01 69.7901 138.99 70.1601C139.59 70.5501 140.2 70.9501 140.8 71.3401C142.72 72.8001 144.89 74.5101 145.42 76.6601L145.35 76.7901C145.06 76.6901 144.62 76.5301 144.12 76.2601C142.97 75.6301 142.29 74.8601 142.04 74.6001C140.47 72.9001 138.05 71.8901 137.31 71.5901C135.97 71.0401 134.41 70.7401 131.87 70.5501C131.57 70.5301 130.27 70.6601 128.68 71.2001C127.69 71.5301 126.96 71.9101 126.58 72.1201C125.46 72.7401 124.6 73.4301 123.97 74.0301L122.18 76.1801L119.89 80.2101C118.81 82.1201 116.76 88.2101 116.5 90.2401C116.32 91.6401 116.1 92.3701 115.78 93.8601C115.41 95.5701 115.17 96.5201 114.79 97.5901C114.51 98.3901 114.21 99.1001 114.09 99.3901C113.1 101.76 112.81 101.74 112.88 102.26C113.1 103.82 115.8 105.09 116.61 105.33C116.71 105.36 117.01 105.44 117.33 105.68C117.73 105.98 117.96 106.36 118.1 106.66L118.93 108.72C119.5 110.14 119.97 111.45 120.55 112.86L122.59 117.87C123.71 120.61 123.62 123.93 123.62 126.94C123.41 128.52 123.21 130.1 123 131.68C122.51 131.86 121.93 132.03 121.28 132.13C119.05 132.47 117.2 131.86 116.2 131.43C113.44 130.12 111.02 129.81 109.55 129.74C105.25 129.53 101.93 130.89 100.38 131.75C99.29 132.36 98.25 132.86 97.19 133.57L94.67 135.27C91.6 137.34 88.9 140.81 86.83 143.96L82.99 151.03C81.82 153.48 80.94 155.59 80.3 157.17C79.61 158.89 77.91 163.27 76.28 169.19C75.7 171.31 75.27 173.09 74.99 174.34L73.31 181.73C72.62 185.77 71.92 189.81 71.23 193.84C71.13 194.35 70.99 195.14 70.86 196.09C70.38 199.61 70 202.36 70.72 205.05C71.05 206.29 71.92 208.63 74.56 211.03L74.58 211.04ZM144.2 246.48C143.02 246.87 141.67 246.66 140.46 246.63C139.03 246.59 137.77 246.22 136.59 245.47C135.56 244.82 134.54 244.17 133.51 243.52C132.84 242.96 132.12 242.4 131.34 241.83C130.53 241.24 129.74 240.7 128.98 240.22L124.45 236.53L118.8 233.42L115.56 231.84C114.28 231.21 115.71 223.23 121.27 219.41C122.73 218.41 124.27 219.85 125.42 220.43C129.71 222.58 133.99 219.79 139.58 221.44L143.08 221.95L145.79 222.08L149.77 222.13C150.37 222.13 150.52 222.81 150.5 223.28C150.48 223.73 150.22 224.1 149.83 224.49C146.04 228.24 137.81 225.47 141.67 229.81L144.22 232.67C146.03 234.1 147.54 235.66 149.34 237.07L151.17 238.51L155.52 241.32L157.05 242.75C152.76 244 148.47 245.25 144.17 246.49L144.2 246.48ZM202.62 215.22L203.05 208.88C203.35 204.42 205.67 205.22 208.13 202.93C208.56 202.54 209.11 202.69 209.41 203.03C210.77 204.53 210.95 206.3 211.06 208.18C211.2 210.47 210.82 212.41 210.36 214.61L209.24 220.03C209 221.17 205.63 223.64 204.42 223.32C203.77 223.15 203.68 222.37 203.48 221.67C202.86 219.5 202.46 217.46 202.61 215.22H202.62ZM186.96 178.08C190.27 179.36 193.57 180.65 196.88 181.93C187.04 184.35 177.21 186.77 167.37 189.19C163.61 187.84 159.86 186.49 156.1 185.14C166.39 182.78 176.67 180.43 186.96 178.07V178.08ZM171.59 171.79C174.05 172.82 176.51 173.86 178.98 174.89C167.92 177.24 156.87 179.59 145.81 181.93C142.6 180.7 139.39 179.47 136.18 178.24C147.98 176.09 159.79 173.94 171.59 171.79ZM133.27 104.53C133.88 102.97 135.31 101.37 137.16 101.21L140.61 100.92L148.56 100.41L153.08 100.29C155.75 100.29 158.42 100.29 161.09 100.29C161.14 100.29 161.2 100.31 161.27 100.35C161.39 100.42 161.52 100.58 161.61 101.36C161.63 101.51 161.65 101.71 161.66 101.96L160.87 112.3C160.72 114.24 160.76 116.01 160.41 117.95C159.95 120.51 159.6 123.07 158.51 125.45C157.63 127.63 156.13 129.41 154.08 130.5C150.23 131.27 146.86 129.69 143.9 127.43C138.78 123.52 134.73 117.99 132.93 111.79C132.73 111.1 132.77 110.51 132.7 109.84C132.48 107.94 132.54 106.38 133.26 104.52L133.27 104.53ZM97.27 193.42C97.71 192.07 98.56 191.24 98.99 190.87L102.9 182.54L103.57 181.92C103.87 183.21 103.86 184.48 103.81 185.74L103.7 188.46L103.28 192.53L102.7 195.6L105.37 198.33L108.85 201.04C109.33 200.72 109.62 200.23 109.78 199.7C111.31 194.65 111.39 189.37 112.44 184.74C112.87 182.84 113.04 179.32 113.19 176.94L113.57 171L113.7 168.76L113.61 162.25C113.52 161.03 113.49 159.63 113.83 159.55C114.03 159.5 114.29 159.94 114.44 160.19C115.32 161.69 115.28 163.28 115.3 163.34C116.44 168.93 116.51 174.47 116.38 180.15C116.34 181.83 116.17 183.19 115.95 184.83C115.19 190.38 114.05 195.69 112.06 200.9C111.88 201.37 111.1 202.14 111.82 202.66C112.49 203.14 113 204.22 113.64 204.63C114.77 205.35 115.31 206.18 116.18 206.99L121.56 211.95C123.61 213.84 126.54 216.8 126.81 214.34L127.24 210.52C127.48 208.43 127.67 206.28 127.81 204.07C127.83 203.67 127.86 203.26 127.88 202.86L128.77 193.36L129.11 189.43C129.22 188.17 129.42 187.05 129.5 185.77L129.71 182.62C129.75 182.07 130.11 181.7 130.53 181.6C131.01 181.49 131.29 181.77 131.73 181.95L141.94 186.14C141.85 189.38 141.75 192.61 141.66 195.85C141.48 197 142.03 198.1 142.95 198.54C143.91 199 144.86 198.56 145 198.49C145.83 197.39 146.31 196.42 146.6 195.74C147.14 194.43 147.16 193.65 147.81 191.79C148.11 190.93 148.42 190.11 148.74 189.33L152.79 190.75L162.42 194.37C162.59 194.85 162.76 195.33 162.94 195.81L162.23 204.4L161.95 212.67L161.56 215.37L161.23 218.85L161.1 221.55L160.74 227.13C160.65 228.57 160.55 229.9 160.47 231.37L160.29 234.7L159.95 238.76C159.92 239.09 159.79 239.43 159.59 239.55C159.43 239.65 159.08 239.77 158.78 239.63L153.77 237.14L152.06 236.16L149.35 233.8C149.14 233.61 148.82 233.31 148.45 232.94C147.23 231.71 147.4 231.6 146.8 231.15C146.01 230.57 145.26 230.42 145.17 229.81C145.17 229.81 145.14 229.7 145.17 229.59C145.43 228.54 150.2 228.92 152.58 224.91C153.21 223.86 153.47 222.63 152.95 221.49C152.52 220.55 151.5 219.81 150.28 219.82L144.75 219.87L137.29 218.53C137.11 218.5 136.92 218.48 136.73 218.47C136.32 218.43 135.93 218.42 135.58 218.43L129.28 218.79C128.05 218.86 126.49 218.3 125.5 217.67L121.47 215.09L118.33 212.39L116.69 210.85L114.13 208.74C111.62 206.22 108.54 203.72 104.79 201.6C104.31 201.33 103.84 201.07 103.36 200.83C102.39 200.26 101.41 199.69 100.44 199.12C97.78 197.56 97.72 197.64 97.48 197.27C96.51 195.81 97.14 193.85 97.28 193.44L97.27 193.42Z" fill="#2563EB"/>
<path d="M85.81 196.1C77.73 236.75 69.66 277.4 61.58 318.06H162.93C168.28 290.29 173.63 262.52 178.98 234.76" stroke="#2563EB" stroke-width="7" stroke-miterlimit="10"/>
<path d="M189.97 176.13C195.87 147.54 203.03 117.35 208.93 88.7699C235.86 88.8499 262.79 88.9199 289.71 88.9999C298.68 66.7999 307.65 44.6099 316.62 22.4099H60.16C51.29 44.3099 42.42 66.1999 33.55 88.0999C57 88.3199 80.46 88.5399 103.91 88.7599C100.41 107.83 96.92 126.9 93.42 145.97" stroke="#2563EB" stroke-width="7" stroke-miterlimit="10"/>
<path d="M199.37 230.76C192.57 266.15 185.77 301.54 178.98 336.92H37.98C53.28 260.55 68.58 184.17 83.88 107.8C57.63 107.67 31.38 107.55 5.13 107.42C18.82 72.78 32.5 38.14 46.17 3.5H346.49C332.03 38.31 317.57 73.11 303.11 107.92H224.17C219.02 134.52 213.86 161.13 208.71 187.73" stroke="#2563EB" stroke-width="7" stroke-miterlimit="10"/>
</g>
<defs>
<clipPath id="clip0_2168_251">
<rect width="765.48" height="344.49" fill="white"/>
</clipPath>
</defs>
</svg>
