<svg width="546" height="143" viewBox="0 0 546 143" fill="none" xmlns="http://www.w3.org/2000/svg">
<path d="M69.954 9C79.7739 9.00071 86.0697 15.5393 92.9657 21.4375L107.562 33.7881L122.64 46.5225C125.383 48.8606 128.883 51.7979 131.369 54.3301C135.065 58.1014 137.64 62.8275 138.803 67.9785C139.845 72.4522 139.528 81.9845 139.524 86.9561L139.512 110.078C139.439 116.947 137.996 123.143 132.966 128.209C128.645 132.56 123.156 134.602 116.986 134.473C104.296 134.207 93.2007 125.62 83.2294 118.66C80.0541 116.444 76.6873 113.757 73.0116 112.563C71.1713 111.966 69.4099 112.111 67.5165 112.309C64.2843 113.244 61.313 115.05 58.4569 117.064C58.1972 117.248 57.9384 117.432 57.6805 117.618C56.6492 118.362 55.6312 119.126 54.62 119.877C44.2298 127.596 29.4913 137.107 16.6219 133.932C16.0965 133.802 15.5743 133.65 15.0555 133.478C11.6845 132.354 8.46284 130.296 5.5067 127.032C-0.24114 120.687 0.00268292 112.347 0.0213529 104.244L0.0369779 91.0273L0.0223295 78.9795C0.0205463 77.2553 -0.0300379 75.3322 0.0272123 73.5195C0.0462939 72.9154 0.0779645 72.323 0.126822 71.7549C1.14282 59.9428 8.42121 53.5034 16.6102 46.7412C17.78 45.7752 18.9686 44.8024 20.16 43.8066L20.8036 43.1904C22.3932 41.7129 24.5325 39.9864 26.0887 38.6689L36.7587 29.6494L49.0477 19.2832C55.6993 13.6843 60.5554 8.99945 69.954 9ZM78.5692 19.0967C74.173 15.9619 67.822 15.2471 63.0018 17.9072C58.6869 20.2887 54.4326 24.3038 50.6307 27.5371L33.0018 42.4131C30.6214 44.4056 27.9345 46.9084 25.4901 48.7461L23.9423 50.0967C20.3261 53.2221 16.6868 56.1978 13.3124 59.6406C8.91881 64.1235 7.75742 68.8752 7.4403 74.1777C7.39894 74.8693 7.37132 75.5703 7.35338 76.2813C7.31752 77.7031 7.31809 79.1651 7.31237 80.6719L7.29772 93.9619L7.28893 105.255C7.2885 111.546 6.9372 117.655 11.3924 122.726C13.5875 125.297 16.9745 126.941 20.3944 127.234C20.6224 127.254 20.851 127.268 21.079 127.275C32.6513 127.651 43.0218 119.007 52.0936 112.85C55.0544 110.84 62.0992 105.509 65.4589 105.52C75.0923 103.471 79.7042 107.634 87.2255 112.743C97.3085 119.593 113.772 133.16 126.155 124.559C132.309 120.283 132.203 112.703 132.2 106.061L132.19 94.7041L132.182 81.4961C132.18 77.6383 132.342 73.8763 131.678 70.0508C130.22 61.6607 123.301 56.7632 117.244 51.502C110.642 45.8313 104.002 40.2051 97.3241 34.625L87.6092 26.3799C84.6511 23.8349 81.7801 21.3383 78.5692 19.0967ZM44.5975 83.2588C54.1655 77.1787 62.8324 70.8087 74.911 73.2178C77.5241 73.7659 80.0622 74.6266 82.4696 75.7813C87.5048 78.2158 94.4077 82.9192 99.2635 86.0078L106.738 90.7852C112.195 94.3141 118.676 98.9057 117.318 106.505C116.372 111.801 110.692 114.7 105.695 113.404C100.769 112.174 96.3809 108.874 92.1786 106.179L81.7508 99.5156C77.1409 96.6248 73.2665 93.9756 67.496 94.9551C63.0145 95.7158 59.8207 98.3495 56.0467 100.657C51.7651 103.43 47.3424 106.182 43.0878 108.995C42.5143 109.351 41.8957 109.719 41.3339 110.085C40.1214 110.761 38.6198 111.653 37.3651 112.182L37.1659 112.301C37.0302 112.378 36.8878 112.452 36.7401 112.523C36.3706 112.702 35.9661 112.862 35.538 113.002C35.024 113.169 34.4761 113.307 33.9149 113.414C32.9795 113.592 32.0067 113.683 31.0907 113.676C30.4496 113.671 29.8363 113.617 29.2831 113.512C29.204 113.497 29.1262 113.481 29.0497 113.464C28.7583 113.398 28.4713 113.317 28.1903 113.224C27.9089 113.13 27.6334 113.022 27.3641 112.901C27.2297 112.841 27.0968 112.778 26.9657 112.712C26.7032 112.579 26.4478 112.433 26.2001 112.275C25.9526 112.118 25.7124 111.949 25.4813 111.769C25.019 111.407 24.592 110.999 24.2059 110.552C23.9165 110.216 23.6498 109.858 23.41 109.479C23.0811 108.95 22.808 108.393 22.5926 107.818C22.3235 107.1 22.1444 106.353 22.0575 105.594C22.0227 105.29 22.0029 104.984 21.9979 104.678C21.9954 104.525 21.9968 104.371 22.0018 104.218C22.022 103.604 22.1028 102.99 22.245 102.384C22.3445 101.954 22.4666 101.535 22.6102 101.127C22.6581 100.991 22.7081 100.856 22.7606 100.723C24.2301 96.9863 27.4737 94.2008 30.8163 92.1025C35.3861 89.1178 39.9803 86.1696 44.5975 83.2588ZM80.2225 82.3828C72.5549 78.0694 64.629 78.9514 57.3036 83.5127C54.8201 85.0592 52.3296 86.6562 49.8465 88.2217C44.8494 91.3448 39.8777 94.5089 34.9325 97.7139C34.6677 97.8929 34.3859 98.0833 34.0946 98.2842C33.8034 98.485 33.5025 98.6961 33.2001 98.918C32.5949 99.3618 31.9829 99.8477 31.4237 100.371C31.0743 100.698 30.745 101.039 30.452 101.396C30.159 101.752 29.9021 102.122 29.6952 102.506C29.6124 102.659 29.5372 102.815 29.4715 102.973C29.3403 103.288 29.2458 103.612 29.1942 103.943C28.8882 105.914 29.8595 106.548 31.1053 106.6C31.2437 106.605 31.3854 106.604 31.5292 106.597C32.392 106.551 33.3276 106.282 34.038 106.015L35.8251 105.191C35.9806 105.079 36.8012 104.647 37.0536 104.488C37.4721 104.225 37.8926 103.96 38.3133 103.696C38.602 103.515 38.8914 103.335 39.1815 103.156C39.5817 102.91 39.9827 102.666 40.3866 102.431C45.8683 98.8667 51.6559 95.1127 57.1903 91.7744C69.9485 84.0788 78.3128 88.663 89.3006 96.1318C92.5546 98.1702 95.1377 99.9206 98.4579 101.986C101.169 103.673 105.841 107.248 109.244 106.468C111.096 106.043 110.321 103.051 109.342 101.821C107.014 98.8998 103.306 96.8165 100.115 94.8057L92.2098 89.8135C88.2156 87.2989 84.3351 84.6964 80.2225 82.3828ZM64.9432 40.8164C70.1979 40.0749 75.8774 40.4047 80.7997 42.5234C86.2589 44.8734 91.2264 48.4823 96.2645 51.6006C97.5378 52.3887 98.9067 53.2069 100.093 54.0986C102.142 55.382 104.184 56.6792 106.216 57.9902C110.927 61.0129 115.852 64.0315 117.404 70.0527C117.451 70.2336 117.49 70.4163 117.524 70.5996C117.553 70.7523 117.578 70.9056 117.599 71.0596C117.624 71.2455 117.644 71.432 117.657 71.6191C117.938 75.5443 115.667 79.6838 111.723 81.0898C111.687 81.0977 111.65 81.1055 111.614 81.1133L111.613 81.1104C111 81.3945 109.743 81.5185 109.049 81.54C107.366 81.6026 105.685 81.3617 104.088 80.8291C101.712 80.0156 98.5123 77.997 96.3544 76.6289L84.9735 69.2969C78.6812 65.1994 72.4404 60.4559 64.66 63.5156C61.01 64.9512 57.7183 67.2868 54.4481 69.3994L43.1092 76.6787C40.228 78.5149 36.6582 80.8705 33.2743 81.3662C30.6515 81.7342 27.8087 81.5835 25.6483 79.8848C20.8957 76.1472 20.828 69.8524 24.4022 65.2617C27.1839 61.6887 30.492 59.8433 34.2049 57.4883C37.0296 55.6727 39.7593 53.7592 42.6376 52.0215C49.6844 47.7672 56.5753 42.0651 64.9432 40.8164ZM76.8553 48.5684C70.6784 46.5494 64.0222 47.2823 58.3944 50.5088C54.2651 52.8761 50.3438 55.5242 46.326 58.0713C43.5066 59.8575 40.6977 61.661 37.9003 63.4814C34.8625 65.4475 28.2357 68.9231 29.0839 73.377C29.3661 74.8569 31.9801 74.5735 33.0087 74.1768C35.7767 73.1913 38.3684 71.3041 40.8475 69.7383L52.7792 62.1055C54.2125 61.1947 55.6482 60.1827 57.1073 59.3662C65.6645 54.5788 72.7912 54.1819 81.4842 58.8828C83.6408 60.049 85.1603 61.1083 87.2235 62.4053L99.7665 70.376C101.752 71.613 111.098 78.3163 110.45 71.6836C109.058 67.3335 103.745 65.074 100.068 62.459C100.07 62.459 100.071 62.4589 100.072 62.459C100.071 62.458 100.07 62.457 100.068 62.4561C95.5886 59.7819 91.2383 56.6885 86.7811 53.9521C83.5844 51.9897 80.4621 49.7555 76.8553 48.5684Z" fill="#0273DB"/>
<path d="M160.456 118V50.8H167.944V80.08H205V50.8H212.584V118H205V87.568H167.944V118H160.456ZM239.871 118.96C228.062 118.96 217.695 111.088 217.695 94.48C217.695 79.216 227.103 70.96 238.815 70.96C249.183 70.96 258.303 77.392 258.303 93.808V96.4H224.511C225.183 107.344 231.903 112.336 239.967 112.336C244.959 112.336 250.047 110.224 252.255 104.56L256.671 108.592C253.407 115.6 247.263 118.96 239.871 118.96ZM224.607 91.504H251.775C251.583 82.288 246.207 77.584 239.007 77.584C231.615 77.584 225.471 82.288 224.607 91.504ZM263.686 118V71.92H271.078V118H263.686ZM267.526 62.992C264.838 62.992 262.726 60.88 262.726 58.192C262.726 55.6 264.838 53.488 267.526 53.488C270.118 53.488 272.23 55.6 272.23 58.192C272.23 60.88 270.118 62.992 267.526 62.992ZM338.577 88.336C338.577 80.368 334.353 77.392 328.305 77.392C321.873 77.392 317.265 81.232 315.825 91.408V118H308.433V88.336C308.433 80.368 304.305 77.392 298.161 77.392C291.825 77.392 287.312 81.04 285.681 91.12V118H278.289V71.92H285.681V82.096H285.873C288.753 74.704 293.073 70.96 300.945 70.96C307.569 70.96 313.809 74.032 315.441 82.096C318.033 74.992 323.121 70.96 330.993 70.96C338.769 70.96 345.969 75.088 345.969 86.512V118H338.577V88.336ZM370.62 118.96C362.172 118.96 354.588 116.752 350.076 113.968L350.172 104.272C353.34 107.056 360.156 111.184 371.484 111.184C383.1 111.184 387.996 105.904 387.996 99.472C387.996 81.712 351.132 90.064 351.132 67.12C351.132 56.176 359.484 49.84 373.884 49.84C381.948 49.84 388.188 51.76 392.124 55.024L391.836 63.856C388.476 60.496 381.948 57.424 373.98 57.424C364.956 57.424 359.772 61.648 359.772 67.312C359.772 82.384 395.484 74.608 395.484 99.088C395.484 111.28 386.844 118.96 370.62 118.96ZM405.123 118V77.584H395.523V71.92H405.123V59.632L412.227 58.288L412.035 71.92H421.923V77.584H412.419V118H405.123ZM441.935 118.96C431.855 118.96 422.351 111.952 422.351 95.344C422.351 78.928 431.471 70.96 441.551 70.96C449.135 70.96 454.607 75.376 456.527 82H456.719V71.92H464.111V118H456.719V109.456H456.623C453.839 115.408 449.039 118.96 441.935 118.96ZM429.839 95.344C429.839 107.344 436.751 112.336 443.663 112.336C449.423 112.336 456.143 108.976 456.719 98.032V92.848C456.047 82.96 451.055 77.584 443.855 77.584C435.599 77.584 429.839 84.4 429.839 95.344ZM490.473 118.96C477.609 118.96 467.913 110.896 467.913 95.248C467.913 79.312 478.089 70.96 489.993 70.96C495.369 70.96 499.209 72.592 501.993 74.8V81.136C499.305 78.832 495.945 77.488 491.529 77.488C482.025 77.488 475.209 83.632 475.209 95.056C475.209 106.288 481.929 112.432 491.529 112.432C497.001 112.432 500.361 110.512 502.281 108.688V115.504C499.593 117.52 495.849 118.96 490.473 118.96ZM536.037 118L514.149 95.536V118H506.757V49.552H514.149V90.448L535.461 71.92H543.813L520.581 92.752L544.581 118H536.037Z" fill="url(#paint0_linear_2196_15006)"/>
<defs>
<linearGradient id="paint0_linear_2196_15006" x1="613.149" y1="84.9999" x2="161.168" y2="84.9999" gradientUnits="userSpaceOnUse">
<stop stop-color="#00FF85"/>
<stop offset="1" stop-color="#0071E3"/>
</linearGradient>
</defs>
</svg>
